# xmcd
#
# Track frame offsets:
#	150
#	14475
#	22125
#	36825
#	48525
#	63825
#	78375
#	92700
#	102450
#	117000
#	124500
#	141000
#	155475
#	167025
#	174525
#	189825
#	200475
#	215325
#	230550
#	245775
#
# Disc length: 3424 seconds
#
# Revision: 0
# Processed by: cddbd v1.5.2PL0 Copyright (c) Steve Scherf et al.
# Submitted via: EasyCDDAExtractor 16.0.8.2
#
DISCID=140d5e14
DTITLE=Μπιθικώτσης Γρηγόρης - Η Ελλάδα του Γρηγόρη 1
DYEAR=1994
DGENRE=Λαϊκή
TTITLE0=Μπιθικώτσης Γρηγόρης-χορωδία - Του Βοτανικού ο μάγκας
TTITLE1=Μπιθικώτσης Γρηγόρης - Όμορφη Θεσσαλονίκη
TTITLE2=Μπιθικώτσης Γρηγόρης - Στ' Αποστόλη το κουτούκι
TTITLE3=Μπιθικώτσης Γρηγόρης - Ο καϊξής
TTITLE4=Μπιθικώτσης Γρηγόρης - Τα δυό σου χέρια πήρανε
TTITLE5=Μπιθικώτσης Γρηγόρης - Το χρήμα δεν το λογαριάζω
TTITLE6=Μπιθικώτσης Γρηγόρης - Ο κυρ Θάνος
TTITLE7=Μπιθικώτσης Γρηγόρης - Ένας αλήτης πέθανε
TTITLE8=Μπιθικώτσης Γρηγόρης - Η άμαξα μέσ' στη βροχή
TTITLE9=Μπιθικώτσης Γρηγόρης - Μπαξέ τσιφλίκι
TTITLE10=Μπιθικώτσης Γρηγόρης - Το τρελλοκόριτσο
TTITLE11=Μπιθικώτσης Γρηγόρης - Στου Μπελαμή το ουζερί
TTITLE12=Μπιθικώτσης Γρηγόρης - Δεν έχω βγάλει το σχολείο
TTITLE13=Μπιθικώτσης Γρηγόρης - Όταν συμβεί στα πέριξ
TTITLE14=Μπιθικώτσης Γρηγόρης - Στο περιγιάλι το κρυφό
TTITLE15=Μπιθικώτσης Γρηγόρης - Κράτησα τη ζωή μου
TTITLE16=Μπιθικώτσης Γρηγόρης - Πού πέταξε τ' αγόρι μου
TTITLE17=Μπιθικώτσης Γρηγόρης - Μέρα Μαγιού μού μίσεψες
TTITLE18=Μπιθικώτσης Γρηγόρης - Χελιδόνι στο κλουβί
TTITLE19=Μπιθικώτσης Γρηγόρης - Η κυρά
EXTD=
EXTT0=
EXTT1=
EXTT2=
EXTT3=
EXTT4=
EXTT5=
EXTT6=
EXTT7=
EXTT8=
EXTT9=
EXTT10=
EXTT11=
EXTT12=
EXTT13=
EXTT14=
EXTT15=
EXTT16=
EXTT17=
EXTT18=
EXTT19=
PLAYORDER=
